<svg xmlns="http://www.w3.org/2000/svg" xmlns:xlink="http://www.w3.org/1999/xlink" width="58.5" height="58.5" viewBox="0 0 58.5 58.5">
  <defs>
    <filter id="Button_bg" x="0" y="0" width="58.5" height="58.5" filterUnits="userSpaceOnUse">
      <feOffset input="SourceAlpha"/>
      <feGaussianBlur stdDeviation="3" result="blur"/>
      <feFlood flood-color="#2c1d66" flood-opacity="0.122"/>
      <feComposite operator="in" in2="blur"/>
      <feComposite in="SourceGraphic"/>
    </filter>
    <clipPath id="clip-path">
      <rect id="Rectangle_89" data-name="Rectangle 89" width="18" height="18" transform="translate(201 21)" fill="#a35bff" stroke="#a35bff" stroke-width="1"/>
    </clipPath>
  </defs>
  <g id="Button" transform="translate(-178.75 1.25)">
    <g transform="matrix(1, 0, 0, 1, 178.75, -1.25)" filter="url(#Button_bg)">
      <circle id="Button_bg-2" data-name="Button bg" cx="20" cy="20" r="20" transform="translate(9.25 9.25)" fill="#fff" stroke="#e5e3ee" stroke-width="0.5"/>
    </g>
    <g id="Mask_Group_136" data-name="Mask Group 136" transform="translate(-2 -2)" clip-path="url(#clip-path)">
      <path id="share-social_3_" data-name="share-social(3)" d="M16.623,14.545a2.761,2.761,0,0,0-2,.853l-6.407-3.6a2.764,2.764,0,0,0,0-1.423l6.407-3.6a2.762,2.762,0,1,0-.681-1.206l-6.407,3.6a2.771,2.771,0,1,0,0,3.835l6.407,3.6a2.771,2.771,0,1,0,2.677-2.059Z" transform="translate(198.918 18.913)" fill="#a35bff"/>
    </g>
  </g>
</svg>
