<svg xmlns="http://www.w3.org/2000/svg" width="38" height="38.418" viewBox="0 0 38 38.418">
  <g id="Group_70408" data-name="Group 70408" transform="translate(-135.122 -23.426)">
    <path id="Path_10012" data-name="Path 10012" d="M165.331,46.778,155.507,56.6,142.961,44.055l9.825-9.823a37.327,37.327,0,0,1,13.665-8.39A44.318,44.318,0,0,1,176,23.481l.055-.01.042,0a43.545,43.545,0,0,1-2.368,9.619A37.35,37.35,0,0,1,165.331,46.778Z" transform="translate(-2.973 -0.016)" fill="#b5c5c6"/>
    <path id="Path_10013" data-name="Path 10013" d="M163.748,42.772,153.924,52.6l-4.619-4.62,9.823-9.824A92.239,92.239,0,0,1,170.153,28.8a82.439,82.439,0,0,1,8.251-5.33c.045-.026.071-.039.071-.039a.13.13,0,0,1-.016.029,80.97,80.97,0,0,1-5.359,8.3A92.246,92.246,0,0,1,163.748,42.772Z" transform="translate(-5.378 0)" fill="#c5d5d6"/>
    <path id="Path_10014" data-name="Path 10014" d="M188.075,33.071a9.667,9.667,0,0,1-3.032-1.316A10.063,10.063,0,0,1,182.1,28.8a9.653,9.653,0,0,1-1.3-2.969,44.318,44.318,0,0,1,9.548-2.361c.045-.026.071-.039.071-.039a.13.13,0,0,1-.016.029l.042,0A43.545,43.545,0,0,1,188.075,33.071Z" transform="translate(-17.321 0)" fill="#e54d42"/>
    <path id="Path_10015" data-name="Path 10015" d="M185.835,31.755a10.064,10.064,0,0,1-2.947-2.959,82.439,82.439,0,0,1,8.251-5.33c.045-.026.071-.039.071-.039a.13.13,0,0,1-.016.029A80.964,80.964,0,0,1,185.835,31.755Z" transform="translate(-18.113 0)" fill="#f55d51"/>
    <g id="Group_70398" data-name="Group 70398" transform="translate(155.057 31.291)">
      <path id="Path_10016" data-name="Path 10016" d="M176,44.862a4.386,4.386,0,1,1,0-6.2A4.387,4.387,0,0,1,176,44.862Z" transform="translate(-167.72 -36.58)" fill="#d5e5e6"/>
      <path id="Path_10017" data-name="Path 10017" d="M168.75,44.941a5.183,5.183,0,1,1,7.33,0A5.189,5.189,0,0,1,168.75,44.941Zm6.2-6.2a3.589,3.589,0,1,0,0,5.076A3.593,3.593,0,0,0,174.953,38.738Z" transform="translate(-167.234 -36.095)" fill="#556566"/>
      <path id="Path_10018" data-name="Path 10018" d="M177.906,44.757a1.755,1.755,0,1,1,0-2.481A1.755,1.755,0,0,1,177.906,44.757Z" transform="translate(-170.145 -38.244)" fill="#fff"/>
    </g>
    <g id="Group_70401" data-name="Group 70401" transform="translate(147.708 48.775)">
      <g id="Group_70399" data-name="Group 70399" transform="translate(2.74)">
        <path id="Path_10019" data-name="Path 10019" d="M163.643,74.236c4.323-4.331,6.968-8.69,5.912-9.746s-5.414,1.59-9.745,5.913Z" transform="translate(-159.81 -64.259)" fill="#e54d42"/>
        <path id="Path_10020" data-name="Path 10020" d="M163.237,73.305c4.325-4.329,7.436-8.221,6.955-8.7s-4.374,2.63-8.7,6.955Z" transform="translate(-160.446 -64.37)" fill="#f55d51"/>
      </g>
      <g id="Group_70400" data-name="Group 70400" transform="translate(0 6.725)">
        <path id="Path_10021" data-name="Path 10021" d="M158.068,75.092,155.4,79.708l1.377-.729-1.242,2.43,2.268-1.4-.675,1.43,4.266-3.024Z" transform="translate(-155.395 -75.092)" fill="#ef893a"/>
        <path id="Path_10022" data-name="Path 10022" d="M159.2,75.8l-1.969,3.4,1.015-.537-.915,1.79L159,79.415l-.5,1.054,3.142-2.228Z" transform="translate(-156.092 -75.359)" fill="#f7b23f"/>
      </g>
    </g>
    <g id="Group_70404" data-name="Group 70404" transform="translate(136.904 42.92)">
      <g id="Group_70402" data-name="Group 70402" transform="translate(3.609)">
        <path id="Path_10023" data-name="Path 10023" d="M148.852,67.967c5.692-5.7,9.176-11.444,7.786-12.834s-7.129,2.093-12.833,7.786Z" transform="translate(-143.805 -54.828)" fill="#e54d42"/>
        <path id="Path_10024" data-name="Path 10024" d="M148.319,66.741c5.695-5.7,9.792-10.827,9.157-11.461s-5.761,3.463-11.461,9.158Z" transform="translate(-144.643 -54.975)" fill="#f55d51"/>
      </g>
      <g id="Group_70403" data-name="Group 70403" transform="translate(0 8.856)">
        <path id="Path_10025" data-name="Path 10025" d="M141.511,69.093l-3.519,6.079,1.813-.96-1.635,3.2,2.987-1.849-.889,1.885,5.615-3.983Z" transform="translate(-137.992 -69.093)" fill="#ef893a"/>
        <path id="Path_10026" data-name="Path 10026" d="M143.005,70.021,140.413,74.5l1.336-.708-1.2,2.357,2.2-1.362-.655,1.388,4.137-2.934Z" transform="translate(-138.91 -69.445)" fill="#f7b23f"/>
      </g>
    </g>
    <g id="Group_70407" data-name="Group 70407" transform="translate(135.122 36.189)">
      <g id="Group_70405" data-name="Group 70405" transform="translate(2.74)">
        <path id="Path_10027" data-name="Path 10027" d="M143.369,53.963c4.322-4.332,6.968-8.69,5.911-9.746s-5.413,1.59-9.745,5.912Z" transform="translate(-139.535 -43.985)" fill="#e54d42"/>
        <path id="Path_10028" data-name="Path 10028" d="M142.963,53.032c4.324-4.328,7.436-8.221,6.953-8.7s-4.374,2.629-8.7,6.954Z" transform="translate(-140.172 -44.097)" fill="#f55d51"/>
      </g>
      <g id="Group_70406" data-name="Group 70406" transform="translate(0 6.725)">
        <path id="Path_10029" data-name="Path 10029" d="M137.795,54.818l-2.673,4.617,1.377-.729-1.242,2.429,2.268-1.4-.674,1.431,4.264-3.025Z" transform="translate(-135.122 -54.818)" fill="#ef893a"/>
        <path id="Path_10030" data-name="Path 10030" d="M138.929,55.522l-1.968,3.4,1.014-.537-.915,1.79,1.67-1.034-.5,1.054,3.142-2.227Z" transform="translate(-135.819 -55.085)" fill="#f7b23f"/>
      </g>
    </g>
  </g>
</svg>
