<svg xmlns="http://www.w3.org/2000/svg" xmlns:xlink="http://www.w3.org/1999/xlink" width="20" height="20" viewBox="0 0 20 20">
  <defs>
    <clipPath id="clip-path">
      <rect id="Rectangle_36" data-name="Rectangle 36" width="20" height="20" fill="#fff" stroke="#707070" stroke-width="1"/>
    </clipPath>
  </defs>
  <g id="Mask_Group_6" data-name="Mask Group 6" clip-path="url(#clip-path)">
    <g id="linkedin-black" transform="translate(0 0.909)">
      <g id="Group_3036" data-name="Group 3036">
        <path id="Path_78" data-name="Path 78" d="M339.091,138.636h-4.42v-6.392c0-1.673-.691-2.815-2.212-2.815a2.231,2.231,0,0,0-2.11,1.514,2.806,2.806,0,0,0-.1,1.01v6.684h-4.379s.056-11.322,0-12.351h4.379v1.939c.259-.848,1.658-2.057,3.891-2.057,2.77,0,4.947,1.776,4.947,5.6v6.868Zm-17.646-13.9h-.028a2.155,2.155,0,0,1-2.326-2.141,2.378,2.378,0,1,1,2.354,2.141Zm-1.85,1.545h3.9v12.351h-3.9V126.285Z" transform="translate(-319.091 -120.455)" fill="#fff" fill-rule="evenodd"/>
      </g>
    </g>
  </g>
</svg>
