<svg xmlns="http://www.w3.org/2000/svg" xmlns:xlink="http://www.w3.org/1999/xlink" width="20" height="20" viewBox="0 0 20 20">
  <defs>
    <clipPath id="clip-path">
      <rect id="Rectangle_37" data-name="Rectangle 37" width="20" height="20" fill="#fff" stroke="#707070" stroke-width="1"/>
    </clipPath>
  </defs>
  <g id="Mask_Group_5" data-name="Mask Group 5" clip-path="url(#clip-path)">
    <path id="bxl-twitter_1_" data-name="bxl-twitter(1)" d="M19.981,8.139c.013.178.013.355.013.532A11.584,11.584,0,0,1,8.331,20.335a11.583,11.583,0,0,1-6.3-1.841,8.566,8.566,0,0,0,.99.051,8.213,8.213,0,0,0,5.09-1.751,4.107,4.107,0,0,1-3.834-2.842,5.22,5.22,0,0,0,.774.063,4.362,4.362,0,0,0,1.08-.139A4.1,4.1,0,0,1,2.849,9.851V9.8a4.137,4.137,0,0,0,1.852.52,4.105,4.105,0,0,1-1.27-5.481,11.66,11.66,0,0,0,8.453,4.29,4.658,4.658,0,0,1-.1-.939,4.1,4.1,0,0,1,7.094-2.8,8.1,8.1,0,0,0,2.6-.99,4.091,4.091,0,0,1-1.8,2.259,8.216,8.216,0,0,0,2.36-.635,8.8,8.8,0,0,1-2.055,2.12Z" transform="translate(-2.035 -2.212)" fill="#fff"/>
  </g>
</svg>
