<svg xmlns="http://www.w3.org/2000/svg" xmlns:xlink="http://www.w3.org/1999/xlink" width="135" height="40" viewBox="0 0 135 40">
  <defs>
    <linearGradient id="linear-gradient" x1="0.915" y1="6.614" x2="-0.383" y2="5.945" gradientUnits="objectBoundingBox">
      <stop offset="0" stop-color="#00a0ff"/>
      <stop offset="0.007" stop-color="#00a1ff"/>
      <stop offset="0.26" stop-color="#00beff"/>
      <stop offset="0.512" stop-color="#00d2ff"/>
      <stop offset="0.76" stop-color="#00dfff"/>
      <stop offset="1" stop-color="#00e3ff"/>
    </linearGradient>
    <linearGradient id="linear-gradient-2" x1="1.076" y1="17.1" x2="-1.305" y2="17.1" gradientUnits="objectBoundingBox">
      <stop offset="0" stop-color="#ffe000"/>
      <stop offset="0.409" stop-color="#ffbd00"/>
      <stop offset="0.775" stop-color="orange"/>
      <stop offset="1" stop-color="#ff9c00"/>
    </linearGradient>
    <linearGradient id="linear-gradient-3" x1="0.862" y1="10.863" x2="-0.501" y2="9.093" gradientUnits="objectBoundingBox">
      <stop offset="0" stop-color="#ff3a44"/>
      <stop offset="1" stop-color="#c31162"/>
    </linearGradient>
    <linearGradient id="linear-gradient-4" x1="-0.188" y1="13.583" x2="0.421" y2="12.793" gradientUnits="objectBoundingBox">
      <stop offset="0" stop-color="#32a071"/>
      <stop offset="0.068" stop-color="#2da771"/>
      <stop offset="0.476" stop-color="#15cf74"/>
      <stop offset="0.801" stop-color="#06e775"/>
      <stop offset="1" stop-color="#00f076"/>
    </linearGradient>
  </defs>
  <g id="Playstor" opacity="0.2">
    <g id="Group_3042" data-name="Group 3042">
      <path id="Path_79" data-name="Path 79" d="M130,40H5a5.015,5.015,0,0,1-5-5V5A5.015,5.015,0,0,1,5,0H130a5.015,5.015,0,0,1,5,5V35A5.015,5.015,0,0,1,130,40Z"/>
    </g>
    <g id="Group_3044" data-name="Group 3044">
      <g id="Group_3043" data-name="Group 3043">
        <path id="Path_80" data-name="Path 80" d="M130,.8A4.2,4.2,0,0,1,134.2,5V35a4.2,4.2,0,0,1-4.2,4.2H5A4.2,4.2,0,0,1,.8,35V5A4.2,4.2,0,0,1,5,.8H130m0-.8H5A5.015,5.015,0,0,0,0,5V35a5.015,5.015,0,0,0,5,5H130a5.015,5.015,0,0,0,5-5V5a5.015,5.015,0,0,0-5-5Z" fill="#a6a6a6"/>
      </g>
    </g>
    <g id="Group_3045" data-name="Group 3045">
      <path id="Path_81" data-name="Path 81" d="M47.418,10.243a2.708,2.708,0,0,1-.745,2,2.909,2.909,0,0,1-2.2.888A3.09,3.09,0,0,1,41.352,10a3.091,3.091,0,0,1,3.117-3.134,3.1,3.1,0,0,1,1.231.252,2.475,2.475,0,0,1,.938.67l-.527.528A2.026,2.026,0,0,0,44.469,7.6a2.319,2.319,0,0,0-2.33,2.4,2.359,2.359,0,0,0,4.006,1.727,1.888,1.888,0,0,0,.5-1.215H44.469V9.791h2.907A2.543,2.543,0,0,1,47.418,10.243Z" fill="#fff" stroke="#fff" stroke-width="0.2"/>
      <path id="Path_82" data-name="Path 82" d="M52.028,7.737H49.3v1.9h2.464v.721H49.3v1.9h2.732V13h-3.5V7h3.5Z" fill="#fff" stroke="#fff" stroke-width="0.2"/>
      <path id="Path_83" data-name="Path 83" d="M55.279,13h-.772V7.737H52.831V7h4.123v.737H55.279V13Z" fill="#fff" stroke="#fff" stroke-width="0.2"/>
      <path id="Path_84" data-name="Path 84" d="M59.938,13V7h.771v6Z" fill="#fff" stroke="#fff" stroke-width="0.2"/>
      <path id="Path_85" data-name="Path 85" d="M64.128,13h-.772V7.737H61.681V7H65.8v.737H64.128Z" fill="#fff" stroke="#fff" stroke-width="0.2"/>
      <path id="Path_86" data-name="Path 86" d="M73.609,12.225a3.116,3.116,0,0,1-4.4,0A3.067,3.067,0,0,1,68.326,10a3.067,3.067,0,0,1,.884-2.225,3.1,3.1,0,0,1,4.4,0A3.068,3.068,0,0,1,74.493,10,3.072,3.072,0,0,1,73.609,12.225Zm-3.83-.5a2.307,2.307,0,0,0,3.26,0A2.348,2.348,0,0,0,73.706,10a2.348,2.348,0,0,0-.667-1.722,2.307,2.307,0,0,0-3.26,0A2.351,2.351,0,0,0,69.113,10,2.351,2.351,0,0,0,69.779,11.722Z" fill="#fff" stroke="#fff" stroke-width="0.2"/>
      <path id="Path_87" data-name="Path 87" d="M75.575,13V7h.938l2.916,4.668h.033l-.033-1.156V7H80.2v6h-.8L76.346,8.107h-.033l.033,1.156V13Z" fill="#fff" stroke="#fff" stroke-width="0.2"/>
    </g>
    <path id="Path_88" data-name="Path 88" d="M68.136,21.752A4.253,4.253,0,1,0,72.405,26,4.192,4.192,0,0,0,68.136,21.752Zm0,6.831A2.584,2.584,0,1,1,70.536,26,2.461,2.461,0,0,1,68.136,28.583Zm-9.313-6.831A4.253,4.253,0,1,0,63.092,26,4.192,4.192,0,0,0,58.822,21.752Zm0,6.831A2.584,2.584,0,1,1,61.223,26,2.461,2.461,0,0,1,58.822,28.583ZM47.744,23.057v1.8h4.318a3.766,3.766,0,0,1-.983,2.272,4.42,4.42,0,0,1-3.335,1.321,4.8,4.8,0,0,1,0-9.6A4.6,4.6,0,0,1,51,20.141l1.273-1.273a6.294,6.294,0,0,0-4.527-1.82,6.606,6.606,0,1,0,0,13.211,6.039,6.039,0,0,0,4.608-1.853,5.962,5.962,0,0,0,1.563-4.221,5.871,5.871,0,0,0-.1-1.128H47.744Zm45.308,1.4a3.953,3.953,0,0,0-3.641-2.706A4.042,4.042,0,0,0,85.4,26a4.162,4.162,0,0,0,4.221,4.253,4.231,4.231,0,0,0,3.544-1.885l-1.45-.967a2.429,2.429,0,0,1-2.094,1.176,2.164,2.164,0,0,1-2.062-1.289l5.687-2.352Zm-5.8,1.418A2.333,2.333,0,0,1,89.475,23.4a1.647,1.647,0,0,1,1.579.9ZM82.628,30H84.5V17.5H82.628Zm-3.061-7.3H79.5a2.947,2.947,0,0,0-2.239-.951,4.257,4.257,0,0,0,0,8.506,2.9,2.9,0,0,0,2.239-.967h.064V29.9c0,1.627-.87,2.5-2.272,2.5a2.353,2.353,0,0,1-2.143-1.514l-1.627.677a4.053,4.053,0,0,0,3.77,2.513c2.191,0,4.044-1.289,4.044-4.43V22.009H79.567Zm-2.143,5.88a2.587,2.587,0,0,1,0-5.155A2.4,2.4,0,0,1,79.7,26.021,2.377,2.377,0,0,1,77.425,28.583ZM101.806,17.5H97.335V30H99.2V25.264h2.605a3.888,3.888,0,1,0,0-7.765Zm.048,6.025H99.2V19.239h2.654a2.143,2.143,0,1,1,0,4.285Zm11.532-1.8a3.5,3.5,0,0,0-3.329,1.914l1.657.692a1.768,1.768,0,0,1,1.7-.917,1.8,1.8,0,0,1,1.962,1.608v.129a4.128,4.128,0,0,0-1.946-.483c-1.785,0-3.6.981-3.6,2.815a2.888,2.888,0,0,0,3.1,2.75,2.632,2.632,0,0,0,2.38-1.222h.064v.965h1.8V25.187C117.181,22.967,115.525,21.729,113.386,21.729Zm-.226,6.851c-.611,0-1.464-.306-1.464-1.062,0-.965,1.062-1.335,1.978-1.335a3.324,3.324,0,0,1,1.7.418A2.261,2.261,0,0,1,113.16,28.58ZM123.743,22l-2.139,5.42h-.064L119.32,22h-2.01l3.329,7.575-1.9,4.214h1.946L125.818,22Zm-16.807,8H108.8V17.5h-1.866Z" fill="#fff"/>
    <g id="Group_3047" data-name="Group 3047">
      <path id="Path_89" data-name="Path 89" d="M10.435,7.538a2,2,0,0,0-.463,1.4V31.059a2,2,0,0,0,.463,1.4l.074.072L22.9,20.147v-.292L10.509,7.465Z" fill="url(#linear-gradient)"/>
      <path id="Path_90" data-name="Path 90" d="M27.028,24.279,22.9,20.147v-.292l4.13-4.13.093.053,4.893,2.78c1.4.794,1.4,2.093,0,2.888l-4.893,2.78Z" fill="url(#linear-gradient-2)"/>
      <path id="Path_91" data-name="Path 91" d="M27.122,24.225,22.9,20,10.435,32.464a1.627,1.627,0,0,0,2.078.061l14.608-8.3" fill="url(#linear-gradient-3)"/>
      <path id="Path_92" data-name="Path 92" d="M27.122,15.777l-14.608-8.3a1.627,1.627,0,0,0-2.078.061L22.9,20Z" fill="url(#linear-gradient-4)"/>
      <g id="Group_3046" data-name="Group 3046">
        <path id="Path_93" data-name="Path 93" d="M27.029,24.132,12.513,32.379a1.666,1.666,0,0,1-2,.011h0l-.075.075h0l.074.072h0a1.665,1.665,0,0,0,2-.011l14.608-8.3Z" opacity="0.2"/>
        <path id="Path_94" data-name="Path 94" d="M10.435,32.318a2,2,0,0,1-.463-1.4v.146a2,2,0,0,0,.463,1.4l.075-.075Z" opacity="0.12"/>
      </g>
      <path id="Path_95" data-name="Path 95" d="M32.015,21.3l-4.986,2.833.093.093,4.893-2.78A1.755,1.755,0,0,0,33.063,20h0A1.862,1.862,0,0,1,32.015,21.3Z" opacity="0.12"/>
      <path id="Path_96" data-name="Path 96" d="M12.513,7.623l19.5,11.08A1.861,1.861,0,0,1,33.063,20h0a1.754,1.754,0,0,0-1.048-1.444l-19.5-11.08c-1.4-.794-2.541-.135-2.541,1.466V9.09C9.972,7.489,11.116,6.829,12.513,7.623Z" fill="#fff" opacity="0.25"/>
    </g>
  </g>
</svg>
